<svg width="24" height="24" viewBox="0 0 24 24" fill="none" xmlns="http://www.w3.org/2000/svg">
<path fill-rule="evenodd" clip-rule="evenodd" d="M8.16 2C7.63121 2.00017 7.11185 2.14011 6.65456 2.40563C6.19727 2.67116 5.81828 3.05284 5.556 3.512L3.563 7H2.4C2.29391 7 2.19217 7.04214 2.11716 7.11716C2.04214 7.19217 2 7.29391 2 7.4V7.875C1.9998 8.05357 2.05936 8.22707 2.16917 8.36787C2.27899 8.50868 2.43276 8.6087 2.606 8.652L2.63 8.657C2.21244 9.52367 2.05376 10.4924 2.173 11.447L2.898 17.248C2.95846 17.7318 3.19356 18.1768 3.5591 18.4995C3.92464 18.8221 4.39544 19.0001 4.883 19H5C5.53043 19 6.03914 18.7893 6.41421 18.4142C6.78929 18.0391 7 17.5304 7 17H17C17 17.5304 17.2107 18.0391 17.5858 18.4142C17.9609 18.7893 18.4696 19 19 19H19.117C19.6046 19.0001 20.0754 18.8221 20.4409 18.4995C20.8064 18.1768 21.0415 17.7318 21.102 17.248L21.827 11.448C21.9462 10.4934 21.7876 9.52467 21.37 8.658L21.394 8.652C21.5672 8.6087 21.721 8.50868 21.8308 8.36787C21.9406 8.22707 22.0002 8.05357 22 7.875V7.4C22 7.29391 21.9579 7.19217 21.8828 7.11716C21.8078 7.04214 21.7061 7 21.6 7H20.437L18.444 3.512C18.1817 3.05284 17.8027 2.67116 17.3454 2.40563C16.8881 2.14011 16.3688 2.00017 15.84 2H8.16ZM18.422 7.504L16.708 4.504C16.6205 4.3508 16.494 4.22348 16.3414 4.13496C16.1888 4.04644 16.0154 3.99988 15.839 4H8.161C7.98457 3.99988 7.81124 4.04644 7.65862 4.13496C7.506 4.22348 7.37951 4.3508 7.292 4.504L5.578 7.504C5.49114 7.65606 5.44574 7.82826 5.44633 8.00338C5.44692 8.1785 5.49349 8.35039 5.58137 8.50186C5.66926 8.65333 5.79538 8.77906 5.94711 8.86648C6.09885 8.9539 6.27088 8.99994 6.446 9H17.554C17.7291 8.99994 17.9012 8.9539 18.0529 8.86648C18.2046 8.77906 18.3307 8.65333 18.4186 8.50186C18.5065 8.35039 18.5531 8.1785 18.5537 8.00338C18.5543 7.82826 18.5089 7.65606 18.422 7.504ZM5 13.039V12.339C4.99995 12.2524 5.02241 12.1672 5.06518 12.0919C5.10794 12.0166 5.16955 11.9536 5.24395 11.9093C5.31836 11.8649 5.40301 11.8406 5.48962 11.8388C5.57623 11.837 5.66182 11.8578 5.738 11.899L8.48 13.379C8.853 13.581 8.698 14.148 8.274 14.131L5.96 14.038C5.70212 14.0277 5.45822 13.9181 5.2793 13.7321C5.10039 13.5461 5.00031 13.2981 5 13.04V13.039ZM19 12.339V13.039C19.0002 13.2974 18.9004 13.5459 18.7214 13.7323C18.5424 13.9188 18.2982 14.0287 18.04 14.039L15.726 14.131C15.302 14.148 15.146 13.581 15.52 13.379L18.262 11.899C18.3382 11.8578 18.4238 11.837 18.5104 11.8388C18.597 11.8406 18.6816 11.8649 18.756 11.9093C18.8305 11.9536 18.8921 12.0166 18.9348 12.0919C18.9776 12.1672 19 12.2524 19 12.339Z" fill="#057575"/>
</svg>
