<svg width="24" height="24" viewBox="0 0 24 24" fill="none" xmlns="http://www.w3.org/2000/svg">
<path d="M16.3332 12.5C15.348 12.5 14.3955 12.0566 13.6499 11.252C12.9249 10.4672 12.4822 9.42068 12.4041 8.30602C12.3207 7.11699 12.6805 6.02358 13.417 5.2267C14.1535 4.42983 15.1832 4 16.3332 4C17.475 4 18.5076 4.43756 19.2417 5.2325C19.983 6.03517 20.3438 7.12664 20.2604 8.30553C20.1804 9.42164 19.7381 10.4677 19.0146 11.2516C18.2709 12.0566 17.3188 12.5 16.3332 12.5ZM22.65 21H10.0169C9.81374 21.0011 9.61309 20.9552 9.43034 20.8659C9.24758 20.7765 9.0876 20.6461 8.96269 20.4847C8.83021 20.3097 8.73872 20.1067 8.69507 19.891C8.65142 19.6753 8.65675 19.4525 8.71065 19.2391C9.11411 17.6063 10.1136 16.2521 11.601 15.3233C12.9211 14.4994 14.6015 14.0454 16.3332 14.0454C18.0989 14.0454 19.7353 14.4801 21.063 15.3035C22.5537 16.2274 23.5547 17.5894 23.9562 19.242C24.0095 19.4555 24.0142 19.6784 23.9701 19.8939C23.9259 20.1095 23.8341 20.3123 23.7013 20.4871C23.5765 20.6478 23.4169 20.7775 23.2347 20.8664C23.0525 20.9554 22.8525 21.001 22.65 21ZM7.277 12.6932C5.59082 12.6932 4.10828 11.1129 3.97076 9.17099C3.90272 8.1761 4.21035 7.25608 4.83326 6.58139C5.44946 5.91346 6.31867 5.54545 7.277 5.54545C8.23532 5.54545 9.09782 5.9154 9.71738 6.58718C10.3451 7.26718 10.6517 8.18528 10.5799 9.17195C10.4424 11.1134 8.9603 12.6932 7.277 12.6932ZM10.4232 14.2121C9.58034 13.7967 8.48641 13.5891 7.27747 13.5891C5.86586 13.5891 4.49497 13.96 3.41685 14.6332C2.1945 15.3977 1.37226 16.5109 1.0402 17.855C0.991601 18.0483 0.987005 18.2502 1.02675 18.4456C1.0665 18.6409 1.14956 18.8247 1.26971 18.9832C1.38373 19.1307 1.5298 19.2499 1.69668 19.3316C1.86357 19.4133 2.04682 19.4554 2.23236 19.4545H7.55108C7.64085 19.4545 7.72777 19.4227 7.79668 19.3648C7.8656 19.3068 7.91213 19.2263 7.92818 19.1372C7.93345 19.1068 7.94016 19.0764 7.94783 19.0464C8.35416 17.4015 9.30626 16.0115 10.7131 14.9983C10.7648 14.9607 10.8064 14.9107 10.8342 14.8528C10.8619 14.7949 10.8748 14.7309 10.8718 14.6667C10.8688 14.6025 10.85 14.5401 10.817 14.485C10.784 14.43 10.7379 14.3842 10.6829 14.3516C10.6077 14.3072 10.5214 14.2604 10.4232 14.2121Z" fill="#48DBB7"/>
</svg>
