<svg width="24" height="24" viewBox="0 0 24 24" fill="none" xmlns="http://www.w3.org/2000/svg">
<path d="M20.7375 9.75179C20.4009 9.4 20.0527 9.0375 19.9214 8.71875C19.8 8.42679 19.7929 7.94286 19.7857 7.47411C19.7723 6.60268 19.758 5.61518 19.0714 4.92857C18.3848 4.24196 17.3973 4.22768 16.5259 4.21429C16.0571 4.20714 15.5732 4.2 15.2812 4.07857C14.9634 3.94732 14.6 3.59911 14.2482 3.2625C13.6321 2.67054 12.9321 2 12 2C11.0679 2 10.3688 2.67054 9.75179 3.2625C9.4 3.59911 9.0375 3.94732 8.71875 4.07857C8.42857 4.2 7.94286 4.20714 7.47411 4.21429C6.60268 4.22768 5.61518 4.24196 4.92857 4.92857C4.24196 5.61518 4.23214 6.60268 4.21429 7.47411C4.20714 7.94286 4.2 8.42679 4.07857 8.71875C3.94732 9.03661 3.59911 9.4 3.2625 9.75179C2.67054 10.3679 2 11.0679 2 12C2 12.9321 2.67054 13.6312 3.2625 14.2482C3.59911 14.6 3.94732 14.9625 4.07857 15.2812C4.2 15.5732 4.20714 16.0571 4.21429 16.5259C4.22768 17.3973 4.24196 18.3848 4.92857 19.0714C5.61518 19.758 6.60268 19.7723 7.47411 19.7857C7.94286 19.7929 8.42679 19.8 8.71875 19.9214C9.03661 20.0527 9.4 20.4009 9.75179 20.7375C10.3679 21.3295 11.0679 22 12 22C12.9321 22 13.6312 21.3295 14.2482 20.7375C14.6 20.4009 14.9625 20.0527 15.2812 19.9214C15.5732 19.8 16.0571 19.7929 16.5259 19.7857C17.3973 19.7723 18.3848 19.758 19.0714 19.0714C19.758 18.3848 19.7723 17.3973 19.7857 16.5259C19.7929 16.0571 19.8 15.5732 19.9214 15.2812C20.0527 14.9634 20.4009 14.6 20.7375 14.2482C21.3295 13.6321 22 12.9321 22 12C22 11.0679 21.3295 10.3688 20.7375 9.75179ZM16.0768 10.3625L11.0768 15.3625C11.0104 15.4289 10.9317 15.4816 10.845 15.5175C10.7582 15.5535 10.6653 15.572 10.5714 15.572C10.4776 15.572 10.3846 15.5535 10.2979 15.5175C10.2112 15.4816 10.1324 15.4289 10.0661 15.3625L7.92321 13.2196C7.85685 13.1533 7.80421 13.0745 7.76829 12.9878C7.73237 12.9011 7.71389 12.8081 7.71389 12.7143C7.71389 12.6204 7.73237 12.5275 7.76829 12.4408C7.80421 12.3541 7.85685 12.2753 7.92321 12.2089C8.05724 12.0749 8.23903 11.9996 8.42857 11.9996C8.52243 11.9996 8.61536 12.0181 8.70207 12.054C8.78878 12.0899 8.86756 12.1426 8.93393 12.2089L10.5714 13.8473L15.0661 9.35179C15.1324 9.28542 15.2112 9.23278 15.2979 9.19686C15.3846 9.16095 15.4776 9.14246 15.5714 9.14246C15.6653 9.14246 15.7582 9.16095 15.8449 9.19686C15.9316 9.23278 16.0104 9.28542 16.0768 9.35179C16.1432 9.41815 16.1958 9.49694 16.2317 9.58365C16.2676 9.67035 16.2861 9.76329 16.2861 9.85714C16.2861 9.951 16.2676 10.0439 16.2317 10.1306C16.1958 10.2174 16.1432 10.2961 16.0768 10.3625Z" fill="#48DBB7"/>
</svg>
