<svg width="14" height="14" viewBox="0 0 14 14" fill="none" xmlns="http://www.w3.org/2000/svg">
<path d="M3.18271 2.31318L3.73762 1.95675C4.25697 1.62313 4.94304 1.75393 5.34014 2.26231L6.1309 3.27516C6.47551 3.71608 6.51518 4.33291 6.22899 4.79972L5.43383 6.09862C5.66202 6.68728 6.0255 7.22943 6.52427 7.72506C7.00114 8.20594 7.56944 8.58652 8.19567 8.84436L9.36335 8.07251C9.80572 7.78065 10.3848 7.82539 10.8002 8.18332L11.7676 9.01718C12.2512 9.43354 12.3768 10.1524 12.0625 10.6992L11.7255 11.2853C11.3902 11.8685 10.7803 12.2113 10.1233 12.1844C8.57332 12.1214 6.90308 11.1492 5.11259 9.26766C3.3196 7.38277 2.39385 5.62423 2.33536 3.99203C2.31079 3.30532 2.63355 2.66626 3.18384 2.31288" fill="#48DBB7"/>
</svg>
