<svg width="21" height="22" viewBox="0 0 21 22" fill="none" xmlns="http://www.w3.org/2000/svg">
<path d="M5.05199 4.33632L5.86799 3.81496C6.63169 3.32696 7.63881 3.51559 8.22043 4.25558L9.3786 5.72987C9.88333 6.37167 9.9397 7.27088 9.51801 7.95235L8.34631 9.84854C8.67962 10.7061 9.21175 11.4954 9.94271 12.2165C10.6415 12.9162 11.475 13.4693 12.3938 13.8433L14.111 12.7144C14.7615 12.2876 15.6117 12.351 16.2206 12.8716L17.6388 14.0844C18.3477 14.69 18.5299 15.7376 18.0668 16.5358L17.5701 17.3914C17.0759 18.2427 16.1792 18.7444 15.2145 18.7072C12.9384 18.6201 10.4886 17.2077 7.86489 14.4699C5.23755 11.7273 3.88341 9.16616 3.80249 6.78663C3.76851 5.7855 4.24445 4.85278 5.05365 4.33588" fill="#3F3F3F"/>
</svg>
