<svg width="50" height="50" viewBox="0 0 50 50" fill="none" xmlns="http://www.w3.org/2000/svg">
<rect width="50" height="50" rx="25" fill="white"/>
<path d="M26.028 15C27.153 15.003 27.7239 15.009 28.2169 15.023L28.4109 15.03C28.6349 15.038 28.8559 15.048 29.1229 15.06C30.1868 15.11 30.9128 15.278 31.5497 15.525C32.2097 15.779 32.7657 16.123 33.3216 16.678C33.8303 17.1777 34.2238 17.7824 34.4746 18.4499C34.7216 19.0869 34.8896 19.8129 34.9396 20.8779C34.9516 21.1439 34.9616 21.3648 34.9696 21.5898L34.9756 21.7838C34.9906 22.2758 34.9966 22.8468 34.9986 23.9718L34.9996 24.7178V26.0277C35.002 26.7571 34.9943 27.4865 34.9766 28.2157L34.9706 28.4097C34.9626 28.6347 34.9526 28.8557 34.9406 29.1217C34.8906 30.1866 34.7206 30.9116 34.4746 31.5496C34.2238 32.2171 33.8303 32.8218 33.3216 33.3216C32.8219 33.8302 32.2172 34.2237 31.5497 34.4745C30.9128 34.7215 30.1868 34.8895 29.1229 34.9395L28.4109 34.9695L28.2169 34.9755C27.7239 34.9895 27.153 34.9965 26.028 34.9985L25.282 34.9995H23.9731C23.2434 35.0021 22.5137 34.9944 21.7842 34.9765L21.5902 34.9705C21.3529 34.9615 21.1155 34.9512 20.8783 34.9395C19.8143 34.8895 19.0884 34.7215 18.4504 34.4745C17.7833 34.2236 17.1789 33.8301 16.6795 33.3216C16.1705 32.8219 15.7766 32.2172 15.5255 31.5496C15.2786 30.9126 15.1106 30.1866 15.0606 29.1217L15.0306 28.4097L15.0256 28.2157C15.0071 27.4865 14.9988 26.7571 15.0006 26.0277V23.9718C14.9978 23.2424 15.0051 22.513 15.0226 21.7838L15.0296 21.5898C15.0376 21.3648 15.0476 21.1439 15.0596 20.8779C15.1096 19.8129 15.2776 19.0879 15.5245 18.4499C15.7762 17.7821 16.1707 17.1774 16.6805 16.678C17.1796 16.1695 17.7836 15.7761 18.4504 15.525C19.0884 15.278 19.8133 15.11 20.8783 15.06C21.1443 15.048 21.3662 15.038 21.5902 15.03L21.7842 15.024C22.5134 15.0062 23.2427 14.9986 23.9721 15.001L26.028 15ZM25.0001 19.9999C23.674 19.9999 22.4023 20.5267 21.4647 21.4643C20.5271 22.402 20.0003 23.6737 20.0003 24.9998C20.0003 26.3258 20.5271 27.5975 21.4647 28.5352C22.4023 29.4729 23.674 29.9996 25.0001 29.9996C26.3261 29.9996 27.5978 29.4729 28.5354 28.5352C29.4731 27.5975 29.9998 26.3258 29.9998 24.9998C29.9998 23.6737 29.4731 22.402 28.5354 21.4643C27.5978 20.5267 26.3261 19.9999 25.0001 19.9999ZM25.0001 21.9998C25.394 21.9998 25.7841 22.0773 26.1481 22.228C26.5121 22.3787 26.8428 22.5996 27.1214 22.8781C27.4 23.1567 27.6211 23.4873 27.7719 23.8513C27.9227 24.2152 28.0003 24.6053 28.0004 24.9993C28.0005 25.3932 27.923 25.7833 27.7723 26.1473C27.6216 26.5113 27.4006 26.8421 27.1221 27.1207C26.8436 27.3993 26.513 27.6203 26.149 27.7711C25.7851 27.922 25.395 27.9996 25.0011 27.9997C24.2055 27.9997 23.4424 27.6836 22.8799 27.121C22.3173 26.5584 22.0012 25.7954 22.0012 24.9998C22.0012 24.2041 22.3173 23.4411 22.8799 22.8785C23.4424 22.3159 24.2055 21.9998 25.0011 21.9998M30.2508 18.4999C29.9193 18.4999 29.6014 18.6316 29.367 18.866C29.1326 19.1004 29.0009 19.4184 29.0009 19.7499C29.0009 20.0814 29.1326 20.3993 29.367 20.6337C29.6014 20.8682 29.9193 20.9999 30.2508 20.9999C30.5823 20.9999 30.9002 20.8682 31.1346 20.6337C31.369 20.3993 31.5007 20.0814 31.5007 19.7499C31.5007 19.4184 31.369 19.1004 31.1346 18.866C30.9002 18.6316 30.5823 18.4999 30.2508 18.4999Z" fill="#48DBB7"/>
</svg>
