<svg width="50" height="50" viewBox="0 0 50 50" fill="none" xmlns="http://www.w3.org/2000/svg">
<rect width="50" height="50" rx="25" fill="white"/>
<path d="M29.6939 18.82C28.9965 18.0395 28.6121 17.0374 28.6122 16H25.4592V28.4C25.4354 29.0712 25.1464 29.7071 24.6534 30.1735C24.1603 30.6399 23.5016 30.9004 22.8163 30.9C21.3673 30.9 20.1633 29.74 20.1633 28.3C20.1633 26.58 21.8571 25.29 23.602 25.82V22.66C20.0816 22.2 17 24.88 17 28.3C17 31.63 19.8163 34 22.8061 34C26.0102 34 28.6122 31.45 28.6122 28.3V22.01C29.8908 22.9099 31.4259 23.3926 33 23.39V20.3C33 20.3 31.0816 20.39 29.6939 18.82Z" fill="#48DBB7"/>
</svg>
