<svg width="20" height="20" viewBox="0 0 20 20" fill="none" xmlns="http://www.w3.org/2000/svg">
<path d="M9.5 2C6.0875 2 3 4.61822 3 8.66751C3 11.2532 4.99063 14.2942 8.96375 17.7988C9.2725 18.0671 9.73563 18.0671 10.0444 17.7988C14.0094 14.2942 16 11.2532 16 8.66751C16 4.61822 12.9125 2 9.5 2ZM9.5 10.1311C8.60625 10.1311 7.875 9.39931 7.875 8.50489C7.875 7.61047 8.60625 6.87867 9.5 6.87867C10.3938 6.87867 11.125 7.61047 11.125 8.50489C11.125 9.39931 10.3938 10.1311 9.5 10.1311Z" fill="#3F3F3F"/>
</svg>
