<svg width="50" height="50" viewBox="0 0 50 50" fill="none" xmlns="http://www.w3.org/2000/svg">
<rect width="50" height="50" rx="25" fill="white"/>
<path d="M25.0402 15.0001C19.5528 15.0001 15.0804 19.45 15.0804 24.91C15.0804 26.66 15.5427 28.36 16.407 29.86L15 35L20.2764 33.62C21.7337 34.41 23.3719 34.83 25.0402 34.83C30.5276 34.83 35 30.38 35 24.92C35 22.27 33.9648 19.78 32.0854 17.91C31.1639 16.9842 30.0664 16.25 28.8568 15.7504C27.6472 15.2508 26.3498 14.9957 25.0402 15.0001ZM25.0503 16.67C27.2613 16.67 29.3317 17.53 30.8995 19.09C31.6687 19.8556 32.2786 20.7646 32.6943 21.765C33.1099 22.7654 33.3231 23.8375 33.3216 24.92C33.3216 29.46 29.603 33.15 25.0402 33.15C23.5528 33.15 22.0955 32.76 20.8291 32L20.5276 31.83L17.392 32.65L18.2261 29.61L18.0251 29.29C17.1955 27.9784 16.7565 26.4598 16.7588 24.91C16.7688 20.37 20.4774 16.67 25.0503 16.67ZM21.5126 20.33C21.3518 20.33 21.0804 20.39 20.8492 20.64C20.6281 20.89 19.9749 21.5 19.9749 22.71C19.9749 23.93 20.8693 25.1 20.9799 25.27C21.1206 25.44 22.7487 27.94 25.2513 29C25.8442 29.27 26.3065 29.42 26.6683 29.53C27.2613 29.72 27.804 29.69 28.2362 29.63C28.7186 29.56 29.7035 29.03 29.9146 28.45C30.1256 27.87 30.1256 27.38 30.0653 27.27C29.995 27.17 29.8342 27.11 29.5829 27C29.3317 26.86 28.1055 26.26 27.8844 26.18C27.6533 26.1 27.5126 26.06 27.3216 26.3C27.1608 26.55 26.6784 27.11 26.5377 27.27C26.3869 27.44 26.2462 27.46 26.005 27.34C25.7437 27.21 24.9397 26.95 23.995 26.11C23.2513 25.45 22.7588 24.64 22.608 24.39C22.4874 24.15 22.598 24 22.7186 23.89C22.8291 23.78 22.9899 23.6 23.0905 23.45C23.2211 23.31 23.2613 23.2 23.3417 23.04C23.4221 22.87 23.3819 22.73 23.3216 22.61C23.2613 22.5 22.7588 21.26 22.5477 20.77C22.3467 20.29 22.1457 20.35 21.9849 20.34C21.8442 20.34 21.6834 20.33 21.5126 20.33Z" fill="#48DBB7"/>
</svg>
