<svg width="14" height="14" viewBox="0 0 14 14" fill="none" xmlns="http://www.w3.org/2000/svg">
<path d="M7.00016 1.16667C4.55016 1.16667 2.3335 3.045 2.3335 5.95C2.3335 7.805 3.76266 9.98667 6.61516 12.5008C6.83683 12.6933 7.16933 12.6933 7.391 12.5008C10.2377 9.98667 11.6668 7.805 11.6668 5.95C11.6668 3.045 9.45016 1.16667 7.00016 1.16667ZM7.00016 7C6.3585 7 5.8335 6.475 5.8335 5.83333C5.8335 5.19167 6.3585 4.66667 7.00016 4.66667C7.64183 4.66667 8.16683 5.19167 8.16683 5.83333C8.16683 6.475 7.64183 7 7.00016 7Z" fill="#48DBB7"/>
</svg>
