<svg width="19" height="18" viewBox="0 0 19 18" fill="none" xmlns="http://www.w3.org/2000/svg">
<path d="M10.1195 0.880868L12.3655 5.3827C12.4659 5.58439 12.6605 5.72414 12.8856 5.75639L17.9077 6.47821C18.4744 6.55961 18.7006 7.24814 18.2907 7.64334L14.6566 11.1474C14.4936 11.3046 14.4196 11.5304 14.4579 11.752L15.316 16.6997C15.4127 17.2577 14.8207 17.6836 14.3135 17.42L9.8214 15.0841C9.62008 14.9797 9.37994 14.9797 9.17863 15.0841L4.68651 17.42C4.17985 17.6836 3.58728 17.2577 3.68405 16.6997L4.54209 11.752C4.58039 11.5304 4.5064 11.3041 4.34338 11.1474L0.709293 7.64334C0.299413 7.24814 0.525598 6.55961 1.09229 6.47821L6.11435 5.75639C6.33947 5.72414 6.53406 5.58439 6.63446 5.3827L8.88051 0.880868C9.13409 0.373044 9.86641 0.373044 10.1195 0.880868Z" fill="#FFD858"/>
</svg>
