<svg width="98" height="17" viewBox="0 0 98 17" fill="none" xmlns="http://www.w3.org/2000/svg">
<path d="M9.61948 0.380868L11.8655 4.8827C11.9659 5.08439 12.1605 5.22414 12.3856 5.25639L17.4077 5.97821C17.9744 6.05961 18.2006 6.74814 17.7907 7.14334L14.1566 10.6474C13.9936 10.8046 13.9196 11.0304 13.9579 11.252L14.816 16.1997C14.9127 16.7577 14.3207 17.1836 13.8135 16.92L9.3214 14.5841C9.12008 14.4797 8.87994 14.4797 8.67863 14.5841L4.18651 16.92C3.67985 17.1836 3.08728 16.7577 3.18405 16.1997L4.04209 11.252C4.08039 11.0304 4.0064 10.8041 3.84338 10.6474L0.209293 7.14334C-0.200587 6.74814 0.0255983 6.05961 0.592289 5.97821L5.61435 5.25639C5.83947 5.22414 6.03406 5.08439 6.13446 4.8827L8.38051 0.380868C8.63409 -0.126956 9.36641 -0.126956 9.61948 0.380868Z" fill="#FFD858"/>
<path d="M29.6195 0.380868L31.8655 4.8827C31.9665 5.08439 32.1605 5.22414 32.3857 5.25639L37.4077 5.97821C37.9744 6.05961 38.2006 6.74814 37.7907 7.14334L34.1566 10.6474C33.9936 10.8046 33.9196 11.0304 33.9579 11.252L34.8159 16.1997C34.9127 16.7577 34.3207 17.1836 33.8135 16.92L29.3214 14.5841C29.1201 14.4797 28.8799 14.4797 28.6786 14.5841L24.1865 16.92C23.6798 17.1836 23.0873 16.7577 23.1841 16.1997L24.0421 11.252C24.0804 11.0304 24.0064 10.8041 23.8434 10.6474L20.2093 7.14334C19.7994 6.74814 20.0256 6.05961 20.5923 5.97821L25.6144 5.25639C25.8395 5.22414 26.0341 5.08439 26.1345 4.8827L28.3805 0.380868C28.6336 -0.126956 29.3659 -0.126956 29.6195 0.380868Z" fill="#FFD858"/>
<path d="M49.6195 0.380868L51.8655 4.8827C51.9665 5.08439 52.1605 5.22414 52.3857 5.25639L57.4077 5.97821C57.9744 6.05961 58.2006 6.74814 57.7907 7.14334L54.1566 10.6474C53.9936 10.8046 53.9196 11.0304 53.9579 11.252L54.8159 16.1997C54.9127 16.7577 54.3207 17.1836 53.8135 16.92L49.3214 14.5841C49.1201 14.4797 48.8799 14.4797 48.6786 14.5841L44.1865 16.92C43.6798 17.1836 43.0873 16.7577 43.1841 16.1997L44.0421 11.252C44.0804 11.0304 44.0064 10.8041 43.8434 10.6474L40.2093 7.14334C39.7994 6.74814 40.0256 6.05961 40.5923 5.97821L45.6144 5.25639C45.8395 5.22414 46.0341 5.08439 46.1345 4.8827L48.3805 0.380868C48.6336 -0.126956 49.3659 -0.126956 49.6195 0.380868Z" fill="#FFD858"/>
<path d="M69.6192 0.380868L71.8654 4.8827C71.9658 5.08439 72.1604 5.22414 72.3855 5.25639L77.4077 5.97821C77.9744 6.05961 78.2006 6.74814 77.7907 7.14334L74.1565 10.6474C73.9935 10.8046 73.9195 11.0304 73.9578 11.252L74.8159 16.1997C74.9127 16.7577 74.3206 17.1836 73.8134 16.92L69.3211 14.5841C69.1198 14.4797 68.8797 14.4797 68.6784 14.5841L64.1861 16.92C63.6794 17.1836 63.0873 16.7577 63.1841 16.1997L64.0422 11.252C64.0805 11.0304 64.0065 10.8041 63.8435 10.6474L60.2093 7.14334C59.7994 6.74814 60.0256 6.05961 60.5923 5.97821L65.6145 5.25639C65.8397 5.22414 66.0337 5.08439 66.1347 4.8827L68.3808 0.380868C68.6338 -0.126956 69.3656 -0.126956 69.6192 0.380868Z" fill="#FFD858"/>
<path d="M89.6192 0.380868L91.8653 4.8827C91.9658 5.08439 92.1603 5.22414 92.3855 5.25639L97.4077 5.97821C97.9744 6.05961 98.2006 6.74814 97.7907 7.14334L94.1565 10.6474C93.9935 10.8046 93.9195 11.0304 93.9578 11.252L94.8159 16.1997C94.9127 16.7577 94.3206 17.1836 93.8134 16.92L89.3211 14.5841C89.1198 14.4797 88.8797 14.4797 88.6784 14.5841L84.1861 16.92C83.6794 17.1836 83.0873 16.7577 83.1841 16.1997L84.0422 11.252C84.0805 11.0304 84.0065 10.8041 83.8435 10.6474L80.2093 7.14334C79.7994 6.74814 80.0256 6.05961 80.5923 5.97821L85.6145 5.25639C85.8396 5.22414 86.0337 5.08439 86.1346 4.8827L88.3808 0.380868C88.6333 -0.126956 89.3656 -0.126956 89.6192 0.380868Z" fill="#FFD858"/>
</svg>
