<svg width="27" height="26" viewBox="0 0 27 26" fill="none" xmlns="http://www.w3.org/2000/svg">
<g clip-path="url(#clip0_2031_582)">
<rect x="0.5" width="26" height="26" rx="13" fill="#EAEAEB"/>
<path d="M10.5 17.2115C11.0499 17.9244 11.6099 18.8207 11.903 19.3621C12.26 20.066 12.4079 20.5412 12.6735 21.3924C12.8287 21.8586 12.9767 22 13.2872 22C13.6267 22 13.782 21.7624 13.9009 21.3924C14.149 20.5938 14.3406 19.9863 14.6438 19.4073C15.8132 17.1213 17.7197 15.4971 18.7934 13.2713C18.7934 13.2713 19.5 11.9118 19.5 10.0078C19.5 8.23321 18.8036 7 18.8036 7L10.5044 17.2266L10.5 17.2115Z" fill="#34A853"/>
<path d="M7.51092 12.7391C8.23025 14.3484 9.60181 15.7585 10.538 17L15.5 11.2217C15.5 11.2217 14.7994 12.123 13.5339 12.123C12.1234 12.123 10.9749 11.0194 10.9749 9.62466C10.9749 8.66519 11.557 8 11.557 8C7.9057 8.53338 8.10854 9.40242 7.5 12.736L7.51092 12.7391Z" fill="#FBBC04"/>
<path d="M15.5451 3C17.222 3.53074 18.6457 4.64981 19.5 6.28405L15.4818 11C15.4818 11 16.0719 10.3214 16.0719 9.35019C16.0719 7.90428 14.8316 6.81323 13.4933 6.81323C12.223 6.81323 11.5 7.71751 11.5 7.71751C11.8085 7.02646 14.9961 3.23502 15.5498 3.00156L15.5451 3Z" fill="#4285F4"/>
<path d="M8.5 5.37136C9.46805 4.20583 11.1652 3 13.5088 3C14.6407 3 15.5 3.30378 15.5 3.30378L11.5941 8C11.3306 7.85539 8.76039 5.83013 8.5 5.36516V5.37136Z" fill="#1A73E8"/>
<path d="M7.1904 12C7.1904 12 6.5 10.7874 6.5 9.04184C6.5 7.38703 7.23179 5.93724 8.15563 5L11.5 7.48954L7.19536 12H7.1904Z" fill="#EA4335"/>
</g>
<defs>
<clipPath id="clip0_2031_582">
<rect x="0.5" width="26" height="26" rx="13" fill="white"/>
</clipPath>
</defs>
</svg>
